HIERARCHY
ROOT Hips
{
	OFFSET	0.00	0.00	0.00
	CHANNELS 6 Xposition Yposition Zposition Zrotation Xrotation Yrotation
	JOINT Chest
	{
		OFFSET	 0.00	 5.21	 0.00
		CHANNELS 3 Zrotation Xrotation Yrotation
		JOINT Neck
		{
			OFFSET	 0.00	 18.65	 0.00
			CHANNELS 3 Zrotation Xrotation Yrotation
			JOINT Head
			{
				OFFSET	 0.00	 5.45	 0.00
				CHANNELS 3 Zrotation Xrotation Yrotation
				End Site 
				{
					OFFSET	 0.00	 3.87	 0.00
				}
			}
		}
		JOINT LeftCollar
		{
			OFFSET	 1.12	 16.23	 1.87
			CHANNELS 3 Zrotation Xrotation Yrotation
			JOINT LeftUpArm
			{
				OFFSET	 5.54	 0.00	 0.00
				CHANNELS 3 Zrotation Xrotation Yrotation
				JOINT LeftLowArm
				{
					OFFSET	 0.00	-11.96	 0.00
					CHANNELS 3 Zrotation Xrotation Yrotation
					JOINT LeftHand
					{
						OFFSET	 0.00	-9.93	 0.00
						CHANNELS 3 Zrotation Xrotation Yrotation
						End Site 
						{
							OFFSET	 0.00	-7.00	 0.00
						}
					}
				}
			}
		}
		JOINT RightCollar
		{
			OFFSET	-1.12	 16.23	 1.87
			CHANNELS 3 Zrotation Xrotation Yrotation
			JOINT RightUpArm
			{
				OFFSET	-6.07	 0.00	 0.00
				CHANNELS 3 Zrotation Xrotation Yrotation
				JOINT RightLowArm
				{
					OFFSET	 0.00	-11.82	 0.00
					CHANNELS 3 Zrotation Xrotation Yrotation
					JOINT RightHand
					{
						OFFSET	 0.00	-10.65	 0.00
						CHANNELS 3 Zrotation Xrotation Yrotation
						End Site 
						{
							OFFSET	 0.00	-7.00	 0.00
						}
					}
				}
			}
		}
	}
	JOINT LeftUpLeg
	{
		OFFSET	 3.91	 0.00	 0.00
		CHANNELS 3 Zrotation Xrotation Yrotation
		JOINT LeftLowLeg
		{
			OFFSET	 0.00	-18.34	 0.00
			CHANNELS 3 Zrotation Xrotation Yrotation
			JOINT LeftFoot
			{
				OFFSET	 0.00	-17.37	 0.00
				CHANNELS 3 Zrotation Xrotation Yrotation
				End Site 
				{
					OFFSET	 0.00	-3.46	 0.00
				}
			}
		}
	}
	JOINT RightUpLeg
	{
		OFFSET	-3.91	 0.00	 0.00
		CHANNELS 3 Zrotation Xrotation Yrotation
		JOINT RightLowLeg
		{
			OFFSET	 0.00	-17.63	 0.00
			CHANNELS 3 Zrotation Xrotation Yrotation
			JOINT RightFoot
			{
				OFFSET	 0.00	-17.14	 0.00
				CHANNELS 3 Zrotation Xrotation Yrotation
				End Site 
				{
					OFFSET	 0.00	-3.75	 0.00
				}
			}
		}
	}
}
MOTION
Frames:    30
Frame Time: 0.033333
 8.70	 39.18	 13.36	-0.30	 17.15	 172.79	-1.97	 13.67	 3.60	 8.17	 32.48	 0.00	-7.00	-41.09	 0.67	-2.59	 0.00	 5.32	 54.35	 10.56	-9.90	-3.08	-23.62	 3.29	 0.20	-2.47	 0.01	 5.62	 0.00	-26.74	-55.19	 14.15	 22.12	-18.31	-34.66	-45.97	-2.13	 4.44	 0.17	 8.55	 18.37	-2.71	-0.89	 7.85	-0.84	 0.00	-13.86	 0.00	-12.51	 23.65	 5.09	 5.14	 4.41	-15.28	 0.00	-12.59	 0.00	
 8.76	 39.23	 13.31	-0.28	 17.62	 172.76	-2.34	 13.93	 1.74	 7.92	 33.43	 0.00	-6.90	-41.10	 0.83	-2.63	 0.00	 7.42	 54.50	 10.37	-10.37	-2.99	-23.92	 3.59	 0.21	-2.49	 0.01	 6.28	 0.00	-24.65	-55.90	 14.25	 22.24	-17.43	-34.62	-44.56	-2.18	 4.53	 0.17	 8.31	 18.96	-2.72	-0.29	 7.63	-0.86	 0.00	-14.04	 0.00	-12.36	 24.16	 5.13	 4.94	 4.43	-15.52	 0.00	-12.13	 0.00	
 8.79	 39.24	 13.28	-0.22	 17.92	 172.77	-2.42	 14.20	 0.75	 7.72	 33.76	 0.00	-6.95	-41.10	 0.76	-2.64	 0.00	 8.53	 54.47	 10.26	-10.56	-2.86	-24.08	 3.99	 0.21	-2.50	 0.01	 6.43	 0.00	-23.64	-56.13	 14.32	 22.24	-17.07	-34.74	-43.83	-2.20	 4.55	 0.17	 8.22	 19.36	-2.74	 0.03	 7.45	-0.93	 0.00	-14.10	 0.00	-12.22	 24.56	 5.15	 4.72	 4.34	-15.67	 0.00	-11.90	 0.00	
 8.79	 39.24	 13.27	-0.19	 18.10	 172.76	-2.38	 14.47	 0.79	 7.74	 33.51	 0.00	-6.98	-41.09	 0.71	-2.54	 0.00	 8.67	 54.29	 10.11	-10.28	-2.96	-24.07	 3.76	 0.21	-2.50	 0.01	 6.28	 0.00	-23.85	-55.98	 14.20	 22.02	-16.96	-34.91	-43.52	-2.19	 4.54	 0.17	 8.17	 19.57	-2.75	 0.16	 7.40	-0.94	 0.00	-14.17	 0.00	-12.19	 24.80	 5.18	 4.63	 4.27	-15.72	 0.00	-11.88	 0.00	
 8.78	 39.24	 13.27	-0.21	 18.10	 172.72	-2.38	 14.56	 1.46	 7.95	 33.17	 0.00	-6.87	-41.11	 0.88	-2.43	 0.00	 8.22	 54.15	 9.93	-9.78	-3.26	-23.97	 2.91	 0.21	-2.49	 0.01	 6.25	 0.00	-24.63	-55.87	 13.97	 21.83	-16.94	-34.93	-43.55	-2.18	 4.53	 0.17	 8.11	 19.53	-2.73	 0.19	 7.51	-0.84	 0.00	-14.27	 0.00	-12.23	 24.81	 5.20	 4.66	 4.25	-15.70	 0.00	-11.95	 0.00	
 8.79	 39.23	 13.29	-0.24	 17.96	 172.68	-2.39	 14.44	 1.88	 8.10	 32.96	 0.00	-6.79	-41.12	 1.00	-2.43	 0.00	 8.05	 54.19	 9.68	-9.35	-3.62	-23.88	 1.91	 0.21	-2.49	 0.01	 6.30	 0.00	-25.10	-55.88	 13.79	 21.70	-16.87	-34.92	-43.50	-2.18	 4.53	 0.17	 8.06	 19.33	-2.68	 0.19	 7.67	-0.71	 0.00	-14.34	 0.00	-12.24	 24.62	 5.16	 4.66	 4.26	-15.68	 0.00	-12.00	 0.00	
 8.78	 39.22	 13.30	-0.27	 17.80	 172.65	-2.34	 14.28	 1.57	 7.99	 32.91	 0.00	-6.91	-41.10	 0.82	-2.59	 0.00	 8.60	 54.37	 9.47	-9.28	-3.84	-23.91	 1.34	 0.21	-2.49	 0.01	 6.23	 0.00	-24.85	-55.80	 13.75	 21.52	-16.68	-35.03	-43.10	-2.18	 4.53	 0.17	 8.04	 19.15	-2.65	 0.19	 7.74	-0.67	 0.00	-14.35	 0.00	-12.22	 24.38	 5.11	 4.62	 4.32	-15.71	 0.00	-12.04	 0.00	
 8.78	 39.23	 13.30	-0.29	 17.72	 172.65	-2.27	 14.13	 0.78	 7.71	 33.09	 0.00	-7.10	-41.07	 0.53	-2.88	 0.00	 9.29	 54.65	 9.67	-9.92	-3.73	-24.14	 1.62	 0.21	-2.49	 0.01	 6.08	 0.00	-24.08	-55.66	 13.87	 21.39	-16.51	-35.17	-42.65	-2.18	 4.53	 0.17	 8.03	 19.07	-2.64	 0.18	 7.75	-0.72	 0.00	-14.37	 0.00	-12.22	 24.23	 5.08	 4.59	 4.43	-15.77	 0.00	-12.07	 0.00	
 8.78	 39.23	 13.29	-0.29	 17.70	 172.68	-2.23	 14.03	 0.39	 7.61	 33.33	 0.00	-7.13	-41.07	 0.48	-3.09	 0.00	 9.30	 54.84	 10.13	-10.75	-3.49	-24.37	 2.11	 0.22	-2.49	 0.01	 6.07	 0.00	-23.61	-55.61	 14.00	 21.42	-16.50	-35.16	-42.58	-2.19	 4.54	 0.17	 8.07	 19.07	-2.65	 0.13	 7.73	-0.78	 0.00	-14.41	 0.00	-12.21	 24.23	 5.07	 4.59	 4.44	-15.82	 0.00	-12.03	 0.00	
 8.78	 39.23	 13.30	-0.29	 17.71	 172.71	-2.22	 14.00	 0.62	 7.70	 33.32	 0.00	-7.03	-41.08	 0.64	-3.09	 0.00	 8.86	 54.83	 10.33	-10.90	-3.52	-24.36	 1.92	 0.22	-2.49	 0.01	 6.16	 0.00	-23.77	-55.61	 14.02	 21.48	-16.57	-35.01	-42.84	-2.20	 4.55	 0.17	 8.16	 19.04	-2.68	 0.01	 7.74	-0.81	 0.00	-14.44	 0.00	-12.17	 24.28	 5.07	 4.58	 4.37	-15.81	 0.00	-11.96	 0.00	
 8.78	 39.23	 13.31	-0.29	 17.65	 172.75	-2.22	 13.99	 0.97	 7.76	 33.06	 0.00	-7.01	-41.09	 0.66	-2.93	 0.00	 8.62	 54.68	 10.10	-10.38	-3.84	-24.13	 1.06	 0.21	-2.49	 0.01	 6.20	 0.00	-24.08	-55.56	 14.02	 21.51	-16.63	-34.85	-43.12	-2.20	 4.57	 0.18	 8.23	 18.91	-2.68	-0.08	 7.82	-0.84	 0.00	-14.44	 0.00	-12.11	 24.21	 5.03	 4.50	 4.38	-15.70	 0.00	-11.92	 0.00	
 8.78	 39.22	 13.32	-0.33	 17.56	 172.78	-2.21	 13.94	 1.12	 7.71	 32.81	 0.00	-7.09	-41.07	 0.54	-2.78	 0.00	 8.66	 54.51	 9.75	-9.79	-4.13	-23.84	 0.30	 0.20	-2.48	 0.01	 6.09	 0.00	-24.19	-55.43	 14.07	 21.53	-16.58	-34.78	-43.14	-2.21	 4.58	 0.18	 8.19	 18.74	-2.65	-0.03	 7.89	-0.94	 0.00	-14.36	 0.00	-12.08	 24.03	 4.98	 4.41	 4.50	-15.60	 0.00	-11.93	 0.00	
 8.77	 39.22	 13.33	-0.38	 17.50	 172.82	-2.22	 13.90	 1.18	 7.72	 32.65	 0.00	-7.12	-41.07	 0.50	-2.67	 0.00	 8.72	 54.36	 9.53	-9.40	-4.25	-23.65	 0.00	 0.20	-2.47	 0.01	 5.89	 0.00	-24.30	-55.24	 14.05	 21.39	-16.44	-34.84	-42.87	-2.21	 4.58	 0.18	 8.10	 18.68	-2.61	 0.09	 7.85	-1.11	 0.00	-14.24	 0.00	-12.10	 23.89	 4.96	 4.41	 4.68	-15.65	 0.00	-12.01	 0.00	
 8.78	 39.23	 13.31	-0.38	 17.53	 172.83	-2.24	 13.92	 1.31	 7.82	 32.56	 0.00	-7.07	-41.08	 0.57	-2.58	 0.00	 8.63	 54.28	 9.50	-9.28	-4.29	-23.61	-0.14	 0.20	-2.47	 0.01	 5.80	 0.00	-24.60	-55.12	 13.84	 21.10	-16.32	-34.95	-42.59	-2.21	 4.57	 0.18	 8.08	 18.76	-2.61	 0.15	 7.76	-1.22	 0.00	-14.16	 0.00	-12.13	 23.90	 4.98	 4.50	 4.78	-15.75	 0.00	-12.03	 0.00	
 8.79	 39.23	 13.29	-0.33	 17.59	 172.82	-2.25	 13.93	 1.31	 7.87	 32.57	 0.00	-7.04	-41.08	 0.62	-2.58	 0.00	 8.57	 54.33	 9.62	-9.48	-4.26	-23.70	-0.13	 0.20	-2.47	 0.01	 5.83	 0.00	-24.76	-55.13	 13.67	 20.91	-16.30	-35.07	-42.42	-2.20	 4.56	 0.17	 8.17	 18.88	-2.66	 0.09	 7.74	-1.19	 0.00	-14.22	 0.00	-12.11	 24.01	 4.99	 4.62	 4.77	-15.82	 0.00	-12.06	 0.00	
 8.81	 39.23	 13.28	-0.27	 17.59	 172.79	-2.19	 13.86	 0.93	 7.77	 32.75	 0.00	-7.08	-41.08	 0.55	-2.74	 0.00	 8.85	 54.56	 9.80	-9.94	-4.16	-23.86	 0.17	 0.20	-2.48	 0.01	 5.87	 0.00	-24.37	-55.21	 13.74	 20.96	-16.33	-35.15	-42.34	-2.20	 4.55	 0.17	 8.29	 18.93	-2.71	-0.03	 7.72	-1.05	 0.00	-14.32	 0.00	-12.03	 24.06	 4.97	 4.65	 4.73	-15.79	 0.00	-12.11	 0.00	
 8.81	 39.23	 13.27	-0.24	 17.54	 172.73	-2.14	 13.77	 0.44	 7.65	 32.96	 0.00	-7.13	-41.07	 0.47	-2.98	 0.00	 9.35	 54.84	 9.86	-10.34	-4.10	-24.06	 0.39	 0.21	-2.48	 0.01	 5.85	 0.00	-23.71	-55.25	 13.93	 21.08	-16.34	-35.11	-42.36	-2.20	 4.56	 0.18	 8.33	 18.92	-2.72	-0.09	 7.66	-0.93	 0.00	-14.33	 0.00	-12.00	 24.03	 4.94	 4.57	 4.70	-15.65	 0.00	-12.09	 0.00	
 8.80	 39.22	 13.27	-0.25	 17.52	 172.65	-2.15	 13.75	 0.51	 7.73	 33.01	 0.00	-7.04	-41.08	 0.62	-3.08	 0.00	 9.46	 54.93	 9.82	-10.35	-4.15	-24.23	 0.34	 0.21	-2.49	 0.01	 5.90	 0.00	-23.59	-55.27	 14.00	 21.16	-16.41	-34.98	-42.62	-2.21	 4.57	 0.18	 8.27	 18.96	-2.70	-0.08	 7.54	-0.86	 0.00	-14.22	 0.00	-12.07	 23.97	 4.97	 4.52	 4.69	-15.48	 0.00	-11.99	 0.00	
 8.79	 39.22	 13.28	-0.27	 17.53	 172.57	-2.22	 13.79	 1.23	 7.97	 32.90	 0.00	-6.84	-41.11	 0.92	-3.03	 0.00	 8.78	 54.83	 9.92	-10.22	-4.11	-24.35	 0.42	 0.22	-2.49	 0.01	 6.07	 0.00	-24.20	-55.31	 13.92	 21.23	-16.63	-34.83	-43.15	-2.20	 4.57	 0.18	 8.21	 19.00	-2.69	-0.07	 7.44	-0.85	 0.00	-14.08	 0.00	-12.20	 23.91	 5.01	 4.61	 4.77	-15.43	 0.00	-12.02	 0.00	
 8.80	 39.22	 13.28	-0.29	 17.52	 172.56	-2.28	 13.81	 1.82	 8.11	 32.73	 0.00	-6.74	-41.12	 1.07	-2.96	 0.00	 7.97	 54.74	 10.19	-10.34	-3.95	-24.41	 0.76	 0.22	-2.49	 0.01	 6.21	 0.00	-24.77	-55.32	 13.81	 21.23	-16.83	-34.72	-43.57	-2.20	 4.56	 0.18	 8.21	 18.97	-2.68	-0.10	 7.46	-0.86	 0.00	-14.04	 0.00	-12.25	 23.83	 5.01	 4.71	 4.88	-15.50	 0.00	-12.15	 0.00	
 8.80	 39.23	 13.29	-0.29	 17.49	 172.59	-2.27	 13.79	 1.70	 8.05	 32.64	 0.00	-6.81	-41.11	 0.97	-3.00	 0.00	 7.97	 54.79	 10.25	-10.46	-3.93	-24.33	 0.78	 0.22	-2.49	 0.01	 6.19	 0.00	-24.69	-55.26	 13.79	 21.14	-16.88	-34.69	-43.65	-2.20	 4.56	 0.17	 8.22	 18.90	-2.68	-0.11	 7.57	-0.80	 0.00	-14.08	 0.00	-12.21	 23.78	 4.99	 4.71	 4.93	-15.58	 0.00	-12.22	 0.00	
 8.80	 39.23	 13.29	-0.27	 17.48	 172.61	-2.21	 13.81	 1.13	 7.94	 32.67	 0.00	-6.92	-41.10	 0.80	-3.04	 0.00	 8.77	 54.82	 9.93	-10.24	-4.16	-24.13	 0.25	 0.21	-2.48	 0.01	 6.02	 0.00	-24.15	-55.09	 13.85	 20.95	-16.88	-34.74	-43.52	-2.19	 4.55	 0.17	 8.19	 18.89	-2.67	-0.09	 7.66	-0.65	 0.00	-14.12	 0.00	-12.17	 23.78	 4.97	 4.68	 4.92	-15.60	 0.00	-12.20	 0.00	
 8.79	 39.23	 13.28	-0.27	 17.48	 172.60	-2.17	 13.89	 0.67	 7.87	 32.64	 0.00	-7.00	-41.09	 0.68	-2.97	 0.00	 9.69	 54.71	 9.43	-9.73	-4.50	-23.98	-0.48	 0.20	-2.48	 0.01	 5.79	 0.00	-23.78	-54.80	 13.84	 20.63	-16.84	-34.85	-43.34	-2.19	 4.54	 0.17	 8.14	 18.90	-2.65	-0.06	 7.68	-0.51	 0.00	-14.13	 0.00	-12.19	 23.78	 4.98	 4.65	 4.90	-15.55	 0.00	-12.15	 0.00	
 8.79	 39.23	 13.28	-0.26	 17.47	 172.59	-2.17	 13.93	 0.75	 7.95	 32.59	 0.00	-6.96	-41.09	 0.74	-2.89	 0.00	 9.79	 54.58	 9.29	-9.50	-4.56	-24.00	-0.56	 0.21	-2.48	 0.01	 5.73	 0.00	-23.94	-54.66	 13.80	 20.51	-16.95	-34.94	-43.41	-2.18	 4.52	 0.17	 8.13	 18.88	-2.65	-0.06	 7.67	-0.48	 0.00	-14.13	 0.00	-12.17	 23.77	 4.97	 4.59	 4.86	-15.51	 0.00	-12.11	 0.00	
 8.80	 39.22	 13.29	-0.26	 17.41	 172.59	-2.21	 13.82	 1.27	 8.14	 32.68	 0.00	-6.78	-41.12	 1.02	-2.91	 0.00	 8.95	 54.56	 9.66	-9.77	-4.26	-24.16	 0.19	 0.21	-2.49	 0.01	 5.93	 0.00	-24.44	-54.86	 13.79	 20.78	-17.14	-34.93	-43.75	-2.17	 4.51	 0.17	 8.16	 18.78	-2.64	-0.06	 7.67	-0.56	 0.00	-14.16	 0.00	-12.11	 23.74	 4.94	 4.53	 4.81	-15.55	 0.00	-12.12	 0.00	
 8.80	 39.22	 13.29	-0.27	 17.35	 172.64	-2.23	 13.69	 1.54	 8.27	 32.83	 0.00	-6.63	-41.14	 1.24	-3.03	 0.00	 8.26	 54.69	 10.04	-10.19	-3.93	-24.27	 0.97	 0.21	-2.49	 0.01	 6.17	 0.00	-24.69	-55.19	 13.80	 21.09	-17.21	-34.85	-43.96	-2.18	 4.52	 0.17	 8.18	 18.68	-2.63	-0.02	 7.73	-0.67	 0.00	-14.23	 0.00	-12.08	 23.70	 4.92	 4.55	 4.76	-15.66	 0.00	-12.09	 0.00	
 8.80	 39.22	 13.30	-0.27	 17.36	 172.71	-2.21	 13.71	 1.26	 8.19	 32.82	 0.00	-6.67	-41.13	 1.18	-3.15	 0.00	 8.48	 54.85	 10.01	-10.27	-3.87	-24.23	 1.15	 0.21	-2.49	 0.01	 6.25	 0.00	-24.47	-55.36	 13.81	 21.16	-17.18	-34.82	-43.91	-2.18	 4.53	 0.17	 8.19	 18.63	-2.63	 0.04	 7.80	-0.76	 0.00	-14.29	 0.00	-12.06	 23.71	 4.91	 4.61	 4.74	-15.79	 0.00	-12.00	 0.00	
 8.80	 39.22	 13.29	-0.26	 17.41	 172.76	-2.17	 13.83	 0.70	 7.99	 32.70	 0.00	-6.85	-41.11	 0.91	-3.23	 0.00	 9.29	 54.97	 9.60	-9.96	-4.06	-24.02	 0.78	 0.21	-2.48	 0.01	 6.17	 0.00	-24.00	-55.31	 13.85	 21.06	-17.13	-34.93	-43.70	-2.18	 4.52	 0.17	 8.18	 18.66	-2.63	 0.13	 7.81	-0.79	 0.00	-14.29	 0.00	-12.01	 23.75	 4.90	 4.55	 4.76	-15.82	 0.00	-11.87	 0.00	
 8.82	 39.24	 13.27	-0.23	 17.52	 172.70	-2.17	 13.98	 0.56	 7.89	 32.56	 0.00	-6.99	-41.09	 0.70	-3.21	 0.00	 9.65	 55.01	 9.36	-9.71	-4.27	-23.72	 0.23	 0.20	-2.47	 0.01	 6.07	 0.00	-23.83	-55.35	 13.93	 21.15	-16.96	-35.16	-43.24	-2.17	 4.52	 0.17	 8.16	 18.86	-2.65	 0.21	 7.69	-0.78	 0.00	-14.28	 0.00	-11.89	 23.88	 4.87	 4.35	 4.84	-15.70	 0.00	-11.91	 0.00	
 8.86	 39.28	 13.21	-0.06	 17.88	 172.50	-2.19	 14.25	 1.19	 8.07	 32.45	 0.00	-6.93	-41.10	 0.79	-3.00	 0.00	 8.98	 54.93	 9.56	-9.80	-4.45	-23.41	-0.50	 0.19	-2.45	 0.01	 6.08	 0.00	-24.25	-55.80	 14.08	 21.82	-16.28	-35.64	-41.93	-2.19	 4.54	 0.17	 8.29	 19.48	-2.78	 0.19	 7.34	-0.77	 0.00	-14.23	 0.00	-11.61	 24.37	 4.84	 3.92	 4.99	-15.42	 0.00	-12.26	 0.00	
